<svg width="576" height="512" xmlns="http://www.w3.org/2000/svg">

 <g>
  <title>background</title>
  <rect fill="none" id="canvas_background" height="402" width="582" y="-1" x="-1"/>
 </g>
 <g>
  <title>Layer 1</title>
  <path transform="translate(-414,184) " id="svg_1" d="m302.1,63.5l-146.1,-21.3l-65.3,-132.4c-11.7,-23.6 -45.6,-23.9 -57.4,0l-65.3,132.4l-146.1,21.3c-26.2,3.8 -36.7,36.1 -17.7,54.6l105.7,103l-25,145.5c-4.5,26.3 23.2,46 46.4,33.7l130.7,-68.7l130.7,68.7c23.2,12.2 50.9,-7.4 46.4,-33.7l-25,-145.5l105.7,-103c19,-18.5 8.5,-50.8 -17.7,-54.6zm-139.5,140.8l23.7,138.4l-124.3,-65.3l-124.3,65.3l23.7,-138.4l-100.6,-98l139,-20.2l62.2,-126l62.2,126l139,20.2l-100.6,98z"/>
  <path stroke="#000" transform="rotate(0.4951724112033844 285.2110900878951,256.6531066894508) " id="svg_2" d="m11.422087,196.916976l209.157663,0l64.631327,-193.312358l64.631364,193.312358l209.157627,0l-169.211794,119.47224l64.634672,193.312358l-169.211868,-119.475494l-169.211831,119.475494l64.63469,-193.312358l-169.21185,-119.47224z" stroke-width="1.5" fill="#fff"/>
 </g>
</svg>