<svg width="576" height="512" xmlns="http://www.w3.org/2000/svg">

 <g>
  <title>background</title>
  <rect fill="none" id="canvas_background" height="402" width="582" y="-1" x="-1"/>
 </g>
 <g>
  <title>Layer 1</title>
  <path transform="translate(-414,184) " id="svg_1" d="m302.1,63.5l-146.1,-21.3l-65.3,-132.4c-11.7,-23.6 -45.6,-23.9 -57.4,0l-65.3,132.4l-146.1,21.3c-26.2,3.8 -36.7,36.1 -17.7,54.6l105.7,103l-25,145.5c-4.5,26.3 23.2,46 46.4,33.7l130.7,-68.7l130.7,68.7c23.2,12.2 50.9,-7.4 46.4,-33.7l-25,-145.5l105.7,-103c19,-18.5 8.5,-50.8 -17.7,-54.6zm-139.5,140.8l23.7,138.4l-124.3,-65.3l-124.3,65.3l23.7,-138.4l-100.6,-98l139,-20.2l62.2,-126l62.2,126l139,20.2l-100.6,98z"/>
  <path stroke="#000" transform="rotate(0.4951724112033844 273.21109008788324,249.6531066894505) " id="svg_2" d="m-0.577913,189.916976l209.157663,0l64.631327,-193.312358l64.631364,193.312358l209.157627,0l-169.211794,119.47224l64.634672,193.312358l-169.211868,-119.475494l-169.211831,119.475494l64.63469,-193.312358l-169.21185,-119.47224z" stroke-width="1.5" fill="#fff"/>
  <path d="m224.5,230.453125c0,0 0.31076,0.534927 2,2c2.388962,2.07193 7.865479,6.263657 12,12c3.922363,5.441971 4.731445,10.076889 6,14c1.656845,5.123962 3.173096,5.852722 4,7c1.307449,1.813995 2,2 2,3l1,2l0,0" id="svg_4" stroke-opacity="null" stroke-width="1.5" stroke="#000" fill="#FABA6F"/>
  <path stroke="#000" id="svg_5" d="m-10.447554,189.5331l215.430381,0l66.569645,-197.094983l66.569683,197.094983l215.430343,0l-174.28652,121.810004l66.57309,197.094983l-174.286596,-121.813322l-174.286558,121.813322l66.573109,-197.094983l-174.286577,-121.810004z" stroke-opacity="null" stroke-width="1.5" fill="#FABA6F"/>
 </g>
</svg>